HIERARCHY
ROOT hip
{
	OFFSET 0.000000 0.000000 0.000000 
	CHANNELS 6 Xposition Yposition Zposition Zrotation Yrotation Xrotation
	JOINT abdomen
	{
		OFFSET 0.000000 20.688101 -0.731520 
		CHANNELS 3 Zrotation Xrotation Yrotation
		JOINT chest
		{
			OFFSET 0.000000 11.704300 -0.487680 
			CHANNELS 3 Zrotation Xrotation Yrotation
			JOINT neck
			{
				OFFSET 0.000000 22.189400 -2.194560 
				CHANNELS 3 Zrotation Xrotation Yrotation
				JOINT head
				{
					OFFSET -0.243840 7.071330 1.219200 
					CHANNELS 3 Zrotation Xrotation Yrotation
					End Site
					{
						OFFSET 1.000000 0.000000 0.000000 
					}
				}
			}
			JOINT rCollar
			{
				OFFSET -2.682240 19.263399 -4.876800 
				CHANNELS 3 Zrotation Xrotation Yrotation
				JOINT rShldr
				{
					OFFSET -8.778240 -1.950730 1.463040 
					CHANNELS 3 Zrotation Xrotation Yrotation
					JOINT rForeArm
					{
						OFFSET -28.174200 -1.711500 0.487680 
						CHANNELS 3 Zrotation Xrotation Yrotation
						JOINT rHand
						{
							OFFSET -22.587900 0.773209 7.071360 
							CHANNELS 3 Zrotation Xrotation Yrotation
							End Site
							{
								OFFSET -1.692250 -0.517670 -0.607171 
							}
						}
					}
				}
			}
			JOINT lCollar
			{
				OFFSET 2.682240 19.263399 -4.876800 
				CHANNELS 3 Zrotation Xrotation Yrotation
				JOINT lShldr
				{
					OFFSET 8.778240 -1.950730 1.463040 
					CHANNELS 3 Zrotation Xrotation Yrotation
					JOINT lForeArm
					{
						OFFSET 28.174200 -1.711500 0.487680 
						CHANNELS 3 Zrotation Xrotation Yrotation
						JOINT lHand
						{
							OFFSET 22.587900 0.773209 7.071360 
							CHANNELS 3 Zrotation Xrotation Yrotation
							End Site
							{
								OFFSET 1.692250 -0.517670 -0.607171 
							}
						}
					}
				}
			}
		}
	}
	JOINT rButtock
	{
		OFFSET -8.778240 4.350840 1.219200 
		CHANNELS 3 Zrotation Xrotation Yrotation
		JOINT rThigh
		{
			OFFSET 0.000000 -1.706870 -2.194560 
			CHANNELS 3 Zrotation Xrotation Yrotation
			JOINT rShin
			{
				OFFSET 0.000000 -36.819901 0.731520 
				CHANNELS 3 Zrotation Xrotation Yrotation
				JOINT rFoot
				{
					OFFSET 0.731520 -45.110401 -5.120640 
					CHANNELS 3 Zrotation Xrotation Yrotation
					End Site
					{
						OFFSET -1.122100 -3.699640 12.103000 
					}
				}
			}
		}
	}
	JOINT lButtock
	{
		OFFSET 8.778240 4.350840 1.219200 
		CHANNELS 3 Zrotation Xrotation Yrotation
		JOINT lThigh
		{
			OFFSET 0.000000 -1.706870 -2.194560 
			CHANNELS 3 Zrotation Xrotation Yrotation
			JOINT lShin
			{
				OFFSET 0.000000 -36.819901 0.731520 
				CHANNELS 3 Zrotation Xrotation Yrotation
				JOINT lFoot
				{
					OFFSET -0.731520 -45.110401 -5.120640 
					CHANNELS 3 Zrotation Xrotation Yrotation
					End Site
					{
						OFFSET 1.122100 -3.699640 12.103000 
					}
				}
			}
		}
	}
}
MOTION
Frames: 12
Frame Time: 0.008333
-5.247180 82.079498 -60.221600 -6.429500 3.185600 2.888400 8.199920 6.490210 3.085510 4.535380 -4.238930 1.224800 -15.184700 0.189854 -6.020800 13.811700 8.891090 -8.699720 0.000000 -0.000000 -0.000000 74.433998 6.984130 -1.352100 -14.909900 -7.712340 27.403700 -0.295246 -15.274500 -2.199650 0.000000 -0.000000 -0.000000 -83.827400 18.846901 4.689050 14.645900 -7.488240 -26.861500 0.051798 6.484600 -0.915296 -0.000000 0.000000 -0.000000 12.752200 -14.334100 4.008580 -0.114552 30.126900 0.589795 -3.468540 -13.222400 -9.813140 0.000000 0.000000 0.000000 9.968920 -34.193501 4.499660 0.868729 56.256802 -1.257030 0.756377 -7.840490 0.703883 
-5.281310 82.036903 -59.389900 -6.728200 3.115800 2.961900 8.189560 6.461970 3.259390 4.402340 -4.348160 1.265650 -15.286300 0.368074 -6.031920 14.103000 8.718260 -8.737470 -0.000000 -0.000000 -0.000000 74.274597 7.162800 -1.077420 -15.046300 -7.830370 27.684099 -0.300780 -15.415800 -2.220980 -0.000000 -0.000000 -0.000000 -83.857399 19.084700 4.738170 14.785200 -7.606280 -27.146700 0.049167 6.318430 -0.891646 -0.000000 0.000000 -0.000000 12.777600 -13.642500 4.007300 -0.106456 29.752501 0.610670 -3.565310 -13.554200 -9.960060 0.000000 0.000000 0.000000 9.745260 -35.046398 4.102050 0.794755 54.746399 -1.189560 0.964407 -8.210070 1.608350 
-5.281260 81.986504 -58.543598 -6.867100 3.105300 3.037200 8.190240 6.423960 3.447490 4.267090 -4.418070 1.309120 -15.351900 0.475836 -6.048810 14.297800 8.596470 -8.777810 -0.000000 -0.000000 -0.000000 74.092697 7.387200 -0.777333 -15.182200 -7.948980 27.964300 -0.307977 -15.597200 -2.248420 -0.000000 0.000000 -0.000000 -83.882698 19.305700 4.753270 14.908000 -7.711000 -27.399599 0.047368 6.199330 -0.874709 -0.000000 0.000000 -0.000000 12.813000 -12.865600 4.043850 -0.097169 29.242701 0.627092 -3.651460 -13.817000 -10.113700 0.000000 0.000000 0.000000 9.571410 -35.802502 3.727010 0.722488 53.115299 -1.121840 1.153960 -8.473700 2.404650 
-5.242540 81.989700 -57.683498 -6.818300 3.119700 3.186400 8.209920 6.367270 3.656060 4.121780 -4.430360 1.355870 -15.361700 0.474622 -6.078120 14.347100 8.553420 -8.829320 -0.000000 0.000000 0.000000 73.875603 7.675370 -0.434940 -15.314200 -8.065060 28.238100 -0.317928 -15.841400 -2.285470 -0.000000 0.000000 0.000000 -83.897202 19.510000 4.710150 15.009700 -7.798470 -27.609200 0.046735 6.155010 -0.868411 -0.000000 0.000000 -0.000000 12.859600 -11.976700 4.125550 -0.086146 28.559799 0.638767 -3.727500 -14.000200 -10.284600 0.000000 0.000000 0.000000 9.466570 -36.454800 3.406980 0.652648 51.348499 -1.054860 1.321070 -8.663990 3.090840 
-5.203620 82.045197 -56.809502 -6.832200 2.933400 3.355100 8.223720 6.294390 3.879700 3.967470 -4.410600 1.405030 -15.333200 0.411719 -6.115450 14.310400 8.553080 -8.890520 -0.000000 0.000000 0.000000 73.640404 7.992280 -0.069991 -15.442000 -8.178470 28.504101 -0.329407 -16.116301 -2.327290 -0.000000 0.000000 0.000000 -83.897301 19.712601 4.632060 15.098200 -7.875440 -27.791599 0.046885 6.164500 -0.869762 -0.000000 0.000000 -0.000000 12.889300 -11.007900 4.232340 -0.073701 27.733900 0.646351 -3.790700 -14.122500 -10.454000 0.000000 0.000000 0.000000 9.379220 -37.020599 3.093910 0.585558 49.445702 -0.989227 1.471510 -8.771060 3.709700 
-5.204910 82.147903 -55.904202 -6.943000 2.724300 3.439800 8.232890 6.223460 4.108310 3.820690 -4.380770 1.455750 -15.297600 0.338350 -6.149040 14.253700 8.560100 -8.943140 -0.000000 0.000000 0.000000 73.398598 8.323410 0.294843 -15.573300 -8.296260 28.777599 -0.341352 -16.394800 -2.369810 -0.000000 0.000000 0.000000 -83.898201 19.901899 4.555440 15.179400 -7.946610 -27.958900 0.047120 6.181190 -0.872132 -0.000000 0.000000 -0.000000 12.913600 -9.995470 4.362400 -0.061020 26.826900 0.650308 -3.839930 -14.193800 -10.611200 0.000000 0.000000 0.000000 9.316590 -37.502602 2.756200 0.522080 47.440498 -0.924516 1.589230 -8.731640 4.230490 
-5.226590 82.229103 -54.996700 -7.066600 2.672700 3.507100 8.238350 6.172620 4.331840 3.698050 -4.362870 1.507160 -15.286000 0.305720 -6.167090 14.243000 8.539150 -8.968900 -0.000000 0.000000 0.000000 73.162498 8.654310 0.636771 -15.715300 -8.425280 29.073700 -0.352540 -16.649900 -2.408880 -0.000000 0.000000 0.000000 -83.915604 20.066401 4.516940 15.258900 -8.016550 -28.123199 0.046742 6.158440 -0.868894 -0.000000 0.000000 -0.000000 12.944200 -8.975630 4.513820 -0.049326 25.900801 0.651078 -3.874150 -14.224100 -10.745700 0.000000 0.000000 0.000000 9.284680 -37.903198 2.361580 0.462942 45.366501 -0.860091 1.657090 -8.482700 4.622340 
-5.268680 82.278999 -54.085899 -7.201900 2.558700 3.567300 8.241140 6.161140 4.557260 3.606530 -4.366930 1.562260 -15.318900 0.341820 -6.166830 14.318800 8.462040 -8.963210 -0.000000 0.000000 0.000000 72.933998 8.997130 0.943031 -15.883400 -8.580260 29.424700 -0.363006 -16.886200 -2.445130 -0.000000 0.000000 0.000000 -83.956200 20.204100 4.526540 15.341900 -8.089930 -28.295200 0.045294 6.065250 -0.855642 -0.000000 0.000000 -0.000000 12.993500 -7.968570 4.708120 -0.039219 24.977699 0.648344 -3.892650 -14.196700 -10.865500 0.000000 0.000000 0.000000 9.302700 -38.198399 1.911760 0.408035 43.191200 -0.793842 1.651210 -7.917090 4.831110 
-5.310550 82.318802 -53.263302 -7.401500 2.378500 3.637800 8.240040 6.174500 4.786770 3.536440 -4.379840 1.620420 -15.375800 0.414560 -6.154440 14.438500 8.353860 -8.935780 0.000000 -0.000000 0.000000 72.707199 9.354270 1.228030 -16.068399 -8.752470 29.813400 -0.373211 -17.114100 -2.480170 0.000000 -0.000000 0.000000 -84.011200 20.320700 4.564740 15.424200 -8.163180 -28.465799 0.043306 5.932680 -0.836800 -0.000000 0.000000 -0.000000 13.048900 -6.951670 4.938830 -0.030287 24.022600 0.642193 -3.895410 -14.112800 -10.972500 0.000000 0.000000 0.000000 9.364460 -38.394100 1.422030 0.358127 40.910500 -0.727325 1.585990 -7.099220 4.889200 
-5.298150 82.348396 -52.398399 -7.466200 2.129800 3.726900 8.232740 6.180180 5.003110 3.479500 -4.388830 1.675410 -15.425700 0.485019 -6.131490 14.542700 8.259200 -8.889670 0.000000 -0.000000 0.000000 72.483803 9.696720 1.509600 -16.240999 -8.914260 30.180201 -0.382389 -17.315599 -2.511240 0.000000 -0.000000 0.000000 -84.073402 20.416599 4.624080 15.497300 -8.228560 -28.618000 0.041506 5.807190 -0.818978 -0.000000 0.000000 -0.000000 13.087000 -5.896920 5.162490 -0.022191 23.012199 0.633627 -3.882990 -14.009400 -11.046800 0.000000 0.000000 0.000000 9.435840 -38.537498 0.879426 0.314158 38.600601 -0.664414 1.502010 -6.223290 4.895220 
-5.265300 82.369698 -51.517101 -7.458600 1.802100 3.882300 8.217420 6.145750 5.189010 3.427330 -4.381160 1.720990 -15.437900 0.514273 -6.099550 14.571700 8.222700 -8.827920 0.000000 -0.000000 0.000000 72.265404 9.995370 1.805540 -16.373600 -9.039040 30.465300 -0.389701 -17.472799 -2.535530 0.000000 -0.000000 0.000000 -84.135498 20.492300 4.697030 15.553000 -8.278440 -28.734501 0.040513 5.735240 -0.808766 -0.000000 0.000000 -0.000000 13.087000 -4.776190 5.336160 -0.014548 21.922899 0.623643 -3.856330 -13.923300 -11.069000 0.000000 0.000000 0.000000 9.480670 -38.675301 0.269718 0.275870 36.337700 -0.608061 1.435440 -5.483760 4.946280 
-5.239430 82.377296 -50.625500 -7.469800 1.716400 4.061500 8.203560 6.054440 5.327450 3.377170 -4.352900 1.751960 -15.388200 0.481865 -6.049870 14.481000 8.268940 -8.734820 0.000000 -0.000000 0.000000 72.055000 10.239900 2.122450 -16.450800 -9.112070 30.632099 -0.394169 -17.567301 -2.550170 0.000000 -0.000000 0.000000 -84.195503 20.538799 4.791010 15.582200 -8.304490 -28.795799 0.040585 5.739710 -0.809401 -0.000000 0.000000 -0.000000 13.058600 -3.541360 5.459230 -0.007388 20.693100 0.611439 -3.817550 -13.876800 -11.034400 0.000000 0.000000 0.000000 9.496440 -38.802200 -0.435606 0.240994 34.076801 -0.555604 1.383850 -4.807140 5.074550 
